<?xml version='1.0' encoding='UTF-8'?>
<svg width="33mm" height="33mm" version="1.1" viewBox="0 0 33 33" fill_color="black" back_color="white" xmlns="http://www.w3.org/2000/svg"><path d="M2,2H3V3H2zM3,2H4V3H3zM4,2H5V3H4zM5,2H6V3H5zM6,2H7V3H6zM7,2H8V3H7zM8,2H9V3H8zM10,2H11V3H10zM12,2H13V3H12zM15,2H16V3H15zM16,2H17V3H16zM17,2H18V3H17zM19,2H20V3H19zM20,2H21V3H20zM21,2H22V3H21zM24,2H25V3H24zM25,2H26V3H25zM26,2H27V3H26zM27,2H28V3H27zM28,2H29V3H28zM29,2H30V3H29zM30,2H31V3H30zM2,3H3V4H2zM8,3H9V4H8zM11,3H12V4H11zM17,3H18V4H17zM21,3H22V4H21zM24,3H25V4H24zM30,3H31V4H30zM2,4H3V5H2zM4,4H5V5H4zM5,4H6V5H5zM6,4H7V5H6zM8,4H9V5H8zM10,4H11V5H10zM13,4H14V5H13zM15,4H16V5H15zM19,4H20V5H19zM24,4H25V5H24zM26,4H27V5H26zM27,4H28V5H27zM28,4H29V5H28zM30,4H31V5H30zM2,5H3V6H2zM4,5H5V6H4zM5,5H6V6H5zM6,5H7V6H6zM8,5H9V6H8zM11,5H12V6H11zM14,5H15V6H14zM17,5H18V6H17zM18,5H19V6H18zM21,5H22V6H21zM22,5H23V6H22zM24,5H25V6H24zM26,5H27V6H26zM27,5H28V6H27zM28,5H29V6H28zM30,5H31V6H30zM2,6H3V7H2zM4,6H5V7H4zM5,6H6V7H5zM6,6H7V7H6zM8,6H9V7H8zM12,6H13V7H12zM17,6H18V7H17zM18,6H19V7H18zM21,6H22V7H21zM22,6H23V7H22zM24,6H25V7H24zM26,6H27V7H26zM27,6H28V7H27zM28,6H29V7H28zM30,6H31V7H30zM2,7H3V8H2zM8,7H9V8H8zM10,7H11V8H10zM12,7H13V8H12zM13,7H14V8H13zM14,7H15V8H14zM15,7H16V8H15zM16,7H17V8H16zM18,7H19V8H18zM19,7H20V8H19zM20,7H21V8H20zM22,7H23V8H22zM24,7H25V8H24zM30,7H31V8H30zM2,8H3V9H2zM3,8H4V9H3zM4,8H5V9H4zM5,8H6V9H5zM6,8H7V9H6zM7,8H8V9H7zM8,8H9V9H8zM10,8H11V9H10zM12,8H13V9H12zM14,8H15V9H14zM16,8H17V9H16zM18,8H19V9H18zM20,8H21V9H20zM22,8H23V9H22zM24,8H25V9H24zM25,8H26V9H25zM26,8H27V9H26zM27,8H28V9H27zM28,8H29V9H28zM29,8H30V9H29zM30,8H31V9H30zM11,9H12V10H11zM12,9H13V10H12zM13,9H14V10H13zM15,9H16V10H15zM19,9H20V10H19zM2,10H3V11H2zM4,10H5V11H4zM8,10H9V11H8zM9,10H10V11H9zM13,10H14V11H13zM14,10H15V11H14zM15,10H16V11H15zM17,10H18V11H17zM18,10H19V11H18zM19,10H20V11H19zM21,10H22V11H21zM22,10H23V11H22zM25,10H26V11H25zM28,10H29V11H28zM30,10H31V11H30zM2,11H3V12H2zM3,11H4V12H3zM4,11H5V12H4zM5,11H6V12H5zM6,11H7V12H6zM9,11H10V12H9zM10,11H11V12H10zM11,11H12V12H11zM12,11H13V12H12zM18,11H19V12H18zM22,11H23V12H22zM23,11H24V12H23zM24,11H25V12H24zM25,11H26V12H25zM27,11H28V12H27zM28,11H29V12H28zM30,11H31V12H30zM3,12H4V13H3zM4,12H5V13H4zM6,12H7V13H6zM8,12H9V13H8zM11,12H12V13H11zM12,12H13V13H12zM13,12H14V13H13zM15,12H16V13H15zM16,12H17V13H16zM18,12H19V13H18zM19,12H20V13H19zM20,12H21V13H20zM22,12H23V13H22zM23,12H24V13H23zM24,12H25V13H24zM27,12H28V13H27zM28,12H29V13H28zM30,12H31V13H30zM2,13H3V14H2zM4,13H5V14H4zM5,13H6V14H5zM6,13H7V14H6zM9,13H10V14H9zM11,13H12V14H11zM14,13H15V14H14zM16,13H17V14H16zM17,13H18V14H17zM18,13H19V14H18zM20,13H21V14H20zM21,13H22V14H21zM22,13H23V14H22zM23,13H24V14H23zM24,13H25V14H24zM27,13H28V14H27zM29,13H30V14H29zM5,14H6V15H5zM8,14H9V15H8zM9,14H10V15H9zM10,14H11V15H10zM11,14H12V15H11zM13,14H14V15H13zM14,14H15V15H14zM15,14H16V15H15zM16,14H17V15H16zM19,14H20V15H19zM20,14H21V15H20zM23,14H24V15H23zM24,14H25V15H24zM25,14H26V15H25zM27,14H28V15H27zM30,14H31V15H30zM4,15H5V16H4zM7,15H8V16H7zM9,15H10V16H9zM12,15H13V16H12zM15,15H16V16H15zM16,15H17V16H16zM19,15H20V16H19zM20,15H21V16H20zM25,15H26V16H25zM27,15H28V16H27zM8,16H9V17H8zM9,16H10V17H9zM12,16H13V17H12zM13,16H14V17H13zM14,16H15V17H14zM17,16H18V17H17zM21,16H22V17H21zM26,16H27V17H26zM28,16H29V17H28zM30,16H31V17H30zM6,17H7V18H6zM7,17H8V18H7zM10,17H11V18H10zM11,17H12V18H11zM13,17H14V18H13zM15,17H16V18H15zM19,17H20V18H19zM24,17H25V18H24zM26,17H27V18H26zM27,17H28V18H27zM30,17H31V18H30zM4,18H5V19H4zM5,18H6V19H5zM8,18H9V19H8zM10,18H11V19H10zM11,18H12V19H11zM13,18H14V19H13zM14,18H15V19H14zM15,18H16V19H15zM17,18H18V19H17zM18,18H19V19H18zM19,18H20V19H19zM21,18H22V19H21zM22,18H23V19H22zM25,18H26V19H25zM27,18H28V19H27zM30,18H31V19H30zM3,19H4V20H3zM6,19H7V20H6zM7,19H8V20H7zM10,19H11V20H10zM11,19H12V20H11zM12,19H13V20H12zM18,19H19V20H18zM22,19H23V20H22zM25,19H26V20H25zM29,19H30V20H29zM2,20H3V21H2zM3,20H4V21H3zM4,20H5V21H4zM7,20H8V21H7zM8,20H9V21H8zM9,20H10V21H9zM10,20H11V21H10zM11,20H12V21H11zM12,20H13V21H12zM14,20H15V21H14zM15,20H16V21H15zM16,20H17V21H16zM18,20H19V21H18zM19,20H20V21H19zM20,20H21V21H20zM22,20H23V21H22zM23,20H24V21H23zM24,20H25V21H24zM25,20H26V21H25zM30,20H31V21H30zM4,21H5V22H4zM5,21H6V22H5zM9,21H10V22H9zM10,21H11V22H10zM14,21H15V22H14zM16,21H17V22H16zM17,21H18V22H17zM18,21H19V22H18zM20,21H21V22H20zM21,21H22V22H21zM22,21H23V22H22zM23,21H24V22H23zM25,21H26V22H25zM26,21H27V22H26zM27,21H28V22H27zM29,21H30V22H29zM30,21H31V22H30zM2,22H3V23H2zM3,22H4V23H3zM4,22H5V23H4zM6,22H7V23H6zM7,22H8V23H7zM8,22H9V23H8zM9,22H10V23H9zM11,22H12V23H11zM13,22H14V23H13zM15,22H16V23H15zM16,22H17V23H16zM19,22H20V23H19zM20,22H21V23H20zM22,22H23V23H22zM23,22H24V23H23zM24,22H25V23H24zM25,22H26V23H25zM26,22H27V23H26zM29,22H30V23H29zM10,23H11V24H10zM11,23H12V24H11zM12,23H13V24H12zM13,23H14V24H13zM15,23H16V24H15zM16,23H17V24H16zM19,23H20V24H19zM20,23H21V24H20zM21,23H22V24H21zM22,23H23V24H22zM26,23H27V24H26zM27,23H28V24H27zM2,24H3V25H2zM3,24H4V25H3zM4,24H5V25H4zM5,24H6V25H5zM6,24H7V25H6zM7,24H8V25H7zM8,24H9V25H8zM10,24H11V25H10zM12,24H13V25H12zM14,24H15V25H14zM17,24H18V25H17zM21,24H22V25H21zM22,24H23V25H22zM24,24H25V25H24zM26,24H27V25H26zM27,24H28V25H27zM28,24H29V25H28zM30,24H31V25H30zM2,25H3V26H2zM8,25H9V26H8zM14,25H15V26H14zM15,25H16V26H15zM19,25H20V26H19zM22,25H23V26H22zM26,25H27V26H26zM27,25H28V26H27zM29,25H30V26H29zM2,26H3V27H2zM4,26H5V27H4zM5,26H6V27H5zM6,26H7V27H6zM8,26H9V27H8zM11,26H12V27H11zM12,26H13V27H12zM13,26H14V27H13zM15,26H16V27H15zM17,26H18V27H17zM18,26H19V27H18zM19,26H20V27H19zM21,26H22V27H21zM22,26H23V27H22zM23,26H24V27H23zM24,26H25V27H24zM25,26H26V27H25zM26,26H27V27H26zM2,27H3V28H2zM4,27H5V28H4zM5,27H6V28H5zM6,27H7V28H6zM8,27H9V28H8zM11,27H12V28H11zM18,27H19V28H18zM21,27H22V28H21zM26,27H27V28H26zM2,28H3V29H2zM4,28H5V29H4zM5,28H6V29H5zM6,28H7V29H6zM8,28H9V29H8zM10,28H11V29H10zM11,28H12V29H11zM12,28H13V29H12zM16,28H17V29H16zM18,28H19V29H18zM19,28H20V29H19zM20,28H21V29H20zM21,28H22V29H21zM22,28H23V29H22zM24,28H25V29H24zM26,28H27V29H26zM27,28H28V29H27zM29,28H30V29H29zM30,28H31V29H30zM2,29H3V30H2zM8,29H9V30H8zM11,29H12V30H11zM13,29H14V30H13zM15,29H16V30H15zM17,29H18V30H17zM18,29H19V30H18zM20,29H21V30H20zM23,29H24V30H23zM24,29H25V30H24zM25,29H26V30H25zM26,29H27V30H26zM27,29H28V30H27zM2,30H3V31H2zM3,30H4V31H3zM4,30H5V31H4zM5,30H6V31H5zM6,30H7V31H6zM7,30H8V31H7zM8,30H9V31H8zM10,30H11V31H10zM13,30H14V31H13zM15,30H16V31H15zM16,30H17V31H16zM19,30H20V31H19zM20,30H21V31H20zM23,30H24V31H23zM27,30H28V31H27zM30,30H31V31H30z" id="qr-path" fill="#000000" fill-opacity="1" fill-rule="nonzero" stroke="none" /></svg>